<svg width="367" height="282" viewBox="0 0 367 282" fill="none" xmlns="http://www.w3.org/2000/svg">
<path d="M0.461804 236.993C0.407397 236.944 0.335691 236.919 0.26246 236.922C0.18923 236.926 0.120473 236.959 0.0713168 237.013C0.0221603 237.067 -0.00336987 237.139 0.000342757 237.212C0.00405538 237.286 0.0367067 237.354 0.0911137 237.404C2.44079 241.209 3.93724 245.923 5.80161 250.223C8.58179 256.971 11.4791 263.677 14.7212 270.224C14.8151 270.413 14.9093 270.603 15.0036 270.793C16.6145 274.017 17.7163 277.449 18.4155 280.986C18.4759 281.259 18.5268 281.524 18.6212 281.822C13.8691 267.145 6.79588 251.651 1.7815 236.286C1.68588 235.997 1.61741 235.694 1.56893 235.385C1.33548 233.708 1.4935 231.851 2.07363 230.292C2.18726 230.035 2.32193 229.835 2.48506 229.707C3.04946 229.231 4.07718 229.952 4.76861 230.571C5.50894 231.234 6.18252 232.003 6.83039 232.788C8.12589 234.37 9.3137 236.034 10.4973 237.712C12.8685 241.061 15.116 244.52 17.787 247.692C18.3336 248.329 18.8966 248.979 19.4499 249.612C26.5538 257.68 33.9022 265.555 41.9544 272.719C41.9874 272.747 42.0232 272.776 42.0734 272.806C42.1573 272.832 42.2258 272.957 42.578 272.826C42.8574 272.655 42.8342 272.464 42.8499 272.425C42.8587 272.356 42.8556 272.307 42.8538 272.275C42.8413 272.128 42.8195 272.054 42.7971 271.962C42.7528 271.793 42.6994 271.634 42.6475 271.486C42.5399 271.182 42.4247 270.893 42.306 270.605C41.1903 267.972 39.9091 265.455 38.594 262.942C38.2683 262.324 37.9495 261.716 37.6265 261.097C31.7901 249.7 26.1311 238.023 22.9882 225.661C22.8942 225.244 22.8033 224.83 22.7155 224.419C19.8179 211.311 19.5929 197.461 23.8573 184.631L23.8278 184.704C23.9044 184.552 23.9881 184.395 24.0714 184.246C26.0602 180.811 29.1099 178.01 32.2125 175.432C33.4035 174.456 34.626 173.521 35.8774 172.616C35.9237 172.585 35.9776 172.549 36.0313 172.514C38.6044 170.777 41.3799 169.364 44.3104 168.302C44.3353 168.293 44.3557 168.274 44.3671 168.25C44.3785 168.226 44.3799 168.198 44.3711 168.173C44.3623 168.148 44.3438 168.127 44.3197 168.115C44.2956 168.104 44.2678 168.102 44.2426 168.11C41.2739 169.079 38.3993 170.404 35.7592 172.092C35.7041 172.127 35.6488 172.161 35.5934 172.196C34.3046 173.08 33.0475 173.986 31.8181 174.937C28.6137 177.457 25.4393 180.183 23.2989 183.812C23.2091 183.97 23.1185 184.137 23.0351 184.3L23.0056 184.373C18.6133 197.279 18.7185 211.434 21.6494 224.647C21.738 225.061 21.8298 225.479 21.9247 225.901C25.1339 238.498 30.8299 250.133 36.709 261.576C37.0342 262.197 37.3574 262.806 37.6889 263.424C39.0148 265.909 40.3383 268.405 41.4371 270.967C41.5531 271.244 41.6651 271.522 41.7644 271.799C41.8121 271.933 41.8602 272.077 41.8926 272.199C41.909 272.259 41.9216 272.325 41.9221 272.338C41.9226 272.339 41.9205 272.336 41.9244 272.303C41.937 272.293 41.9004 272.154 42.1479 271.998C42.4604 271.883 42.4997 271.995 42.5418 271.999C42.5647 272.012 42.5697 272.018 42.5685 272.017C34.5429 264.941 27.1742 257.095 20.054 249.081C19.4992 248.452 18.9345 247.807 18.3859 247.175C15.7531 244.087 13.4707 240.641 11.0745 237.303C9.87597 235.628 8.67337 233.963 7.34922 232.359C6.68541 231.563 5.99694 230.779 5.20829 230.075C4.80585 229.723 4.39283 229.392 3.87669 229.138C3.39727 228.891 2.62803 228.735 2.07965 229.188C1.93347 229.302 1.81801 229.433 1.71286 229.584C1.62281 229.714 1.54212 229.861 1.46929 230.023C0.800765 231.809 0.626224 233.635 0.871561 235.494C0.924981 235.834 1.00092 236.174 1.11142 236.508C6.56196 251.756 11.8242 267.919 19.2617 281.609C19.1906 281.387 19.1329 281.109 19.0748 280.844C18.3677 277.277 17.1393 273.797 15.4993 270.545C15.4046 270.356 15.3104 270.167 15.2167 269.978C11.983 263.449 9.09083 256.755 6.31276 250.013C4.40837 245.661 3.09092 241.18 0.461804 236.993Z" fill="white"/>
<path d="M53.5897 223.369C53.6317 223.285 53.639 223.189 53.6099 223.101C53.5809 223.012 53.5179 222.939 53.4348 222.897C53.3518 222.855 53.2554 222.848 53.167 222.877C53.0785 222.906 53.0053 222.969 52.9632 223.052C52.6771 224.015 52.7 224.697 52.629 225.515C52.371 230.518 52.7189 235.559 53.9262 240.438C53.9284 240.447 53.9306 240.455 53.9327 240.464C55.2241 245.776 58.5828 250.26 62.1567 254.198C62.1587 254.2 62.1607 254.202 62.1627 254.205C63.1922 255.337 64.6554 255.818 66.0293 256.083C66.0337 256.084 66.0381 256.085 66.0425 256.086C67.1328 256.343 68.4316 255.862 68.9574 254.916C68.9585 254.915 68.9595 254.913 68.9605 254.912C69.6787 253.749 69.8213 252.37 70.0213 251.054C70.1256 250.275 70.2082 249.497 70.2843 248.715C70.2845 248.713 70.2838 248.711 70.2825 248.709C70.2812 248.707 70.2793 248.706 70.2772 248.706C70.2752 248.706 70.2731 248.707 70.2715 248.708C70.2699 248.709 70.2689 248.711 70.2687 248.713C70.1868 249.494 70.0995 250.272 69.9905 251.05C69.7836 252.362 69.6266 253.744 68.9086 254.877C68.9075 254.878 68.9065 254.88 68.9055 254.881C68.2896 255.836 67.0959 255.788 66.1655 255.518C66.1615 255.518 66.1576 255.517 66.1537 255.516C64.842 255.193 63.5567 254.668 62.7014 253.719C62.6997 253.717 62.698 253.715 62.6963 253.713C59.1405 249.794 55.8665 245.443 54.613 240.291C54.6109 240.282 54.6088 240.274 54.6067 240.266C53.4217 235.484 53.0746 230.48 53.3297 225.558C53.3792 224.811 53.4438 223.906 53.5897 223.369Z" fill="white"/>
<path d="M42.4872 208.015C42.4313 207.959 42.3555 207.928 42.2765 207.928C42.1974 207.928 42.1216 207.959 42.0657 208.015C42.0098 208.071 41.9784 208.147 41.9784 208.226C41.9784 208.305 42.0098 208.381 42.0657 208.436C42.0824 208.453 42.099 208.47 42.1157 208.486C42.4157 208.786 42.7157 209.086 43.0157 209.386C43.0324 209.403 43.049 209.42 43.0657 209.436C43.1216 209.492 43.1974 209.524 43.2765 209.524C43.3555 209.524 43.4313 209.492 43.4872 209.436C43.5431 209.381 43.5745 209.305 43.5745 209.226C43.5745 209.147 43.5431 209.071 43.4872 209.015C43.4705 208.998 43.4539 208.982 43.4372 208.965C43.1372 208.665 42.8372 208.365 42.5372 208.065C42.5205 208.048 42.5039 208.032 42.4872 208.015Z" fill="white"/>
<path d="M82.8451 205.722C82.8451 205.836 82.8905 205.946 82.9714 206.027C83.0523 206.108 83.1621 206.153 83.2765 206.153C83.3909 206.153 83.5006 206.108 83.5815 206.027C83.6624 205.946 83.7078 205.836 83.7078 205.722C83.7084 205.442 83.7081 205.071 83.5555 204.715C83.4064 204.359 83.1433 204.088 82.8829 203.889C82.8813 203.888 82.8796 203.887 82.878 203.886C81.8148 203.118 80.4658 202.843 79.1999 203.205C79.1897 203.208 79.1796 203.211 79.1694 203.214C77.3891 203.811 76.2566 205.272 75.4572 206.769C75.4449 206.792 75.4328 206.816 75.4207 206.84C75.0567 207.559 74.8004 208.318 74.6076 209.086C73.601 213.528 74.0436 218.009 74.3332 222.405C74.3385 222.475 74.3438 222.544 74.3492 222.613C74.8615 228.538 79.174 232.947 83.0602 236.821C83.1372 236.896 83.2142 236.972 83.2913 237.047C86.0981 239.763 89.7765 241.976 93.8999 241.807C94.0432 241.795 94.185 241.778 94.3241 241.755C96.7161 241.331 97.8865 239.045 98.5786 237.146C99.2838 235.147 99.6325 233.07 99.8746 231.01C100.336 226.884 100.335 222.73 100.189 218.595C99.8581 210.33 98.9363 202.093 97.5653 193.952C97.5154 193.664 97.4648 193.377 97.4135 193.092C95.0614 179.885 90.5846 166.842 82.8575 155.766C82.7714 155.641 82.6817 155.522 82.5875 155.407C82.11 154.823 81.4368 154.297 80.6137 154.203C79.7924 154.103 78.9933 154.482 78.4451 155.028C78.3498 155.121 78.2573 155.217 78.1675 155.314C74.1022 160.26 76.1423 166.933 77.5308 172.39C79.1628 178.039 81.3152 183.48 83.4573 188.925C83.5182 189.079 83.5793 189.232 83.6406 189.385C88.0211 200.933 95.8221 210.854 103.813 219.981L103.799 219.96C103.856 220.052 103.914 220.144 103.972 220.236C106.496 224.278 109.991 227.675 113.917 230.33C116.149 231.852 118.503 233.173 120.92 234.365L121.01 234.396C121.038 234.401 121.066 234.406 121.093 234.411C121.828 234.556 122.827 234.478 123.4 233.819C123.955 233.193 124.126 232.443 124.276 231.722C123.912 232.36 123.544 233.03 123.036 233.43C122.537 233.832 121.89 233.83 121.215 233.712C121.191 233.707 121.167 233.703 121.143 233.698L121.233 233.729C118.84 232.548 116.514 231.243 114.316 229.744C110.449 227.129 107.042 223.818 104.565 219.86C104.507 219.77 104.451 219.68 104.394 219.589L104.38 219.568C96.2828 210.32 88.6227 200.64 84.2189 189.151C84.1576 189 84.0966 188.848 84.0357 188.695C81.881 183.26 79.7091 177.837 78.0678 172.236C76.6393 166.828 74.7399 160.223 78.5485 155.665C78.6322 155.574 78.7187 155.485 78.8078 155.397C79.7538 154.365 81.3671 154.612 82.1724 155.748C82.2563 155.85 82.3372 155.958 82.4154 156.071C90.08 167.075 94.5312 180.035 96.8576 193.191C96.9083 193.475 96.9583 193.761 97.0076 194.048C98.362 202.16 99.2489 210.39 99.5391 218.617C99.6651 222.732 99.6435 226.863 99.1687 230.927C98.5948 234.724 98.0208 239.952 94.1989 240.998C94.0825 241.017 93.9606 241.031 93.8355 241.042C90.1182 241.191 86.5386 239.09 83.8616 236.465C83.7851 236.39 83.7087 236.315 83.6324 236.24C79.7619 232.382 75.6469 228.045 75.1937 222.548C75.1884 222.479 75.1831 222.41 75.1778 222.341C74.8839 217.969 74.4583 213.492 75.415 209.288C75.5958 208.565 75.8346 207.863 76.1623 207.216C76.1733 207.194 76.1844 207.172 76.1956 207.151C76.9124 205.78 78.0411 204.499 79.4235 204.055C79.4314 204.052 79.4393 204.05 79.4471 204.048C80.4045 203.76 81.5544 203.986 82.3549 204.572C82.3561 204.573 82.3573 204.574 82.3585 204.574C82.7558 204.883 82.862 205.145 82.8451 205.722Z" fill="white"/>
<path d="M99.598 165.706C99.598 165.621 99.5641 165.539 99.5038 165.479C99.4435 165.419 99.3617 165.385 99.2765 165.385C99.1912 165.385 99.1094 165.419 99.0491 165.479C98.9888 165.539 98.9549 165.621 98.9549 165.706C99.7519 169.223 101.62 171.949 103.109 174.957C103.168 175.068 103.227 175.179 103.288 175.293C103.598 175.875 103.904 176.449 104.206 177.014C111.189 190.304 118.961 203.293 126.311 216.281C126.596 216.892 126.819 217.527 127.025 218.163C127.071 218.304 127.122 218.443 127.179 218.579C127.324 218.928 127.492 219.263 127.675 219.586C127.767 219.748 127.862 219.906 127.959 220.062C128.008 220.139 128.057 220.216 128.104 220.29C128.128 220.328 128.15 220.364 128.171 220.398C128.181 220.414 128.19 220.43 128.197 220.442C128.2 220.447 128.202 220.452 128.201 220.449C128.2 220.436 128.195 220.472 128.17 220.331C126.739 213.505 123.199 203.109 121.901 194.242C121.872 194.058 121.843 193.874 121.815 193.692C121.265 190.154 121.881 186.482 123.308 183.182C123.437 182.882 123.572 182.586 123.713 182.292C123.983 181.693 124.543 181.339 125.189 181.395C125.506 181.415 125.828 181.513 126.126 181.66C130.805 184.118 132.091 189.891 134.991 194.27C135.246 194.678 135.508 195.081 135.783 195.48C139.232 200.396 142.844 205.423 147.998 208.816C148.619 209.211 149.269 209.575 149.933 209.894C150.116 209.982 150.291 210.046 150.47 210.085C150.685 210.13 150.874 210.141 151.1 210.1C151.549 210.019 151.89 209.699 152.091 209.377C152.488 208.72 152.592 208.061 152.685 207.394C152.841 206.08 152.796 204.771 152.712 203.481C152.53 200.9 152.137 198.349 151.682 195.815C150.755 190.752 149.56 185.748 148.16 180.802C148.059 180.449 147.959 180.103 147.861 179.766C146.691 175.799 145.716 171.802 144.424 167.845C144.224 167.326 144.165 166.901 143.72 166.27C143.577 166.123 143.443 165.996 143.316 165.887C143.161 165.756 143.019 165.644 142.811 165.539C142.688 165.481 142.597 165.442 142.42 165.428C142.231 165.412 142.007 165.504 141.888 165.646C141.759 165.798 141.725 165.926 141.694 166.037C141.665 166.155 141.653 166.279 141.648 166.364C141.626 167.15 141.795 167.826 141.952 168.518C142.282 169.87 142.71 171.183 143.16 172.491C144.07 175.112 145.083 177.66 146.146 180.2C148.288 185.276 150.603 190.271 153.223 195.123C153.367 195.389 153.515 195.646 153.674 195.903C154.936 198.039 156.936 199.725 159.054 200.895C159.235 201.001 159.422 201.1 159.616 201.189C160.38 201.539 161.38 201.742 162.255 201.294L162.358 201.219C162.474 201.092 162.587 200.961 162.694 200.828C162.837 200.649 162.972 200.465 163.099 200.277C164.401 198.303 165.009 196.03 165.361 193.774L165.363 193.76C165.37 193.692 165.376 193.624 165.382 193.555C165.532 191.759 165.401 189.979 165.347 188.202C165.346 188.184 165.338 188.167 165.325 188.154C165.312 188.141 165.295 188.134 165.276 188.134C165.258 188.134 165.241 188.141 165.228 188.154C165.215 188.167 165.207 188.184 165.206 188.202C165.137 189.978 165.082 191.761 164.875 193.503C164.867 193.57 164.858 193.636 164.85 193.702L164.852 193.689C164.437 195.882 163.791 198.09 162.534 199.885C162.412 200.055 162.285 200.22 162.15 200.378C162.049 200.496 161.944 200.61 161.835 200.718L161.938 200.643C161.347 200.915 160.62 200.744 159.958 200.439C159.793 200.364 159.63 200.278 159.469 200.184C157.386 199.023 155.585 197.494 154.379 195.469C154.228 195.225 154.088 194.982 153.95 194.728C151.349 189.913 149.031 184.936 146.889 179.887C145.825 177.362 144.811 174.826 143.903 172.233C143.454 170.941 143.028 169.641 142.706 168.336C142.551 167.681 142.397 166.988 142.417 166.408C142.417 166.287 142.47 166.131 142.462 166.158C142.454 166.176 142.382 166.201 142.382 166.195C142.383 166.195 142.417 166.2 142.474 166.228C142.577 166.279 142.694 166.364 142.82 166.47C142.924 166.559 143.042 166.67 143.173 166.804C143.219 166.853 143.358 167.154 143.441 167.371C143.533 167.603 143.622 167.853 143.705 168.092C144.988 171.989 146.181 175.954 147.382 179.907C147.483 180.242 147.584 180.586 147.684 180.938C149.08 185.865 150.217 190.873 151.08 195.92C151.503 198.445 151.862 200.986 152.016 203.525C152.086 204.791 152.116 206.076 151.961 207.301C151.821 208.493 151.34 209.882 150.26 209.219C149.623 208.911 149 208.561 148.402 208.18C143.436 204.92 139.824 199.941 136.4 195.056C136.133 194.667 135.876 194.273 135.627 193.873C132.761 189.611 131.448 183.797 126.397 181.11C126.037 180.935 125.645 180.812 125.229 180.784C124.385 180.686 123.476 181.256 123.15 182.018C123.003 182.318 122.861 182.621 122.725 182.928C121.229 186.302 120.525 190.101 121.078 193.802C121.105 193.986 121.132 194.172 121.161 194.358C121.885 198.996 122.917 203.564 124.074 208.101C124.656 210.365 125.273 212.615 125.946 214.87C126.282 215.993 126.63 217.113 127.005 218.225C127.194 218.784 127.386 219.335 127.604 219.896C127.656 220.028 127.714 220.171 127.775 220.314C127.829 220.44 127.903 220.606 127.972 220.737C128 220.792 128.065 220.909 128.12 220.981C128.138 220.996 128.197 221.126 128.406 221.209C128.463 221.227 128.535 221.251 128.666 221.226C128.787 221.201 128.885 221.123 128.935 221.058C129.037 220.919 129.034 220.844 129.042 220.823C129.086 220.53 129.057 220.447 129.043 220.243C129.015 220.082 129 220.097 128.989 220.063C128.979 220.043 128.969 220.025 128.962 220.012C128.945 219.983 128.933 219.961 128.92 219.94C128.893 219.897 128.87 219.86 128.845 219.821C128.797 219.745 128.75 219.671 128.704 219.597C128.612 219.449 128.524 219.302 128.44 219.154C128.271 218.856 128.119 218.552 127.99 218.242C127.94 218.122 127.892 218.001 127.848 217.879C127.607 217.217 127.303 216.584 127.007 215.955C119.541 202.837 111.774 190.017 104.774 176.71C104.472 176.146 104.165 175.572 103.855 174.99C103.795 174.877 103.736 174.766 103.677 174.656C102.203 171.725 100.29 168.696 99.598 165.706Z" fill="white"/>
<path d="M126.559 149.714C126.559 149.639 126.529 149.567 126.476 149.514C126.423 149.461 126.351 149.432 126.276 149.432C126.202 149.432 126.13 149.461 126.077 149.514C126.024 149.567 125.994 149.639 125.994 149.714C126.024 150.593 126.315 151.346 126.617 152.091C126.882 152.721 127.188 153.327 127.518 153.92C127.519 153.921 127.519 153.922 127.52 153.923C129.049 156.625 132.194 157.76 135.074 157.979C135.085 157.98 135.096 157.98 135.107 157.981C136.688 158.083 137.704 156.589 138.081 155.337C138.084 155.329 138.086 155.321 138.089 155.314C138.692 153.167 138.633 150.962 138.162 148.818C138.161 148.812 138.159 148.805 138.158 148.799C137.757 147.017 136.695 145.322 135.208 144.232C135.205 144.23 135.202 144.228 135.199 144.225C132.987 142.53 129.978 141.559 127.152 142.446L127.048 142.497C127.045 142.499 127.042 142.501 127.039 142.503C125.656 143.461 124.96 144.971 124.539 146.445C124.538 146.447 124.538 146.449 124.537 146.452C124.214 147.61 124.15 148.837 124.368 150.011C124.514 150.804 124.784 151.569 125.15 152.28C125.166 152.313 125.196 152.337 125.231 152.349C125.266 152.361 125.304 152.358 125.337 152.342C125.37 152.326 125.396 152.297 125.408 152.263C125.42 152.228 125.419 152.189 125.403 152.156C125.077 151.454 124.845 150.71 124.734 149.95C124.567 148.826 124.674 147.67 125.032 146.602C125.033 146.6 125.034 146.598 125.034 146.596C125.499 145.223 126.42 143.995 127.527 143.242C127.53 143.24 127.532 143.239 127.535 143.237L127.431 143.288C129.853 142.515 132.641 143.308 134.708 144.876C134.71 144.878 134.713 144.88 134.715 144.882C136.079 145.876 137.001 147.339 137.396 148.987C137.398 148.993 137.399 148.999 137.401 149.005C137.863 150.988 137.965 153.164 137.458 155.123C137.456 155.13 137.454 155.137 137.452 155.144C137.133 156.306 136.352 157.555 135.135 157.472C135.126 157.471 135.118 157.471 135.109 157.47C132.334 157.264 129.381 156.096 128.013 153.648C128.013 153.647 128.012 153.646 128.012 153.645C127.689 153.066 127.392 152.477 127.138 151.873C126.847 151.169 126.578 150.413 126.559 149.714Z" fill="white"/>
<path d="M182.055 124.432C182.113 124.491 182.193 124.524 182.276 124.524C182.36 124.524 182.439 124.491 182.498 124.432C182.557 124.373 182.59 124.293 182.59 124.21C182.59 124.127 182.557 124.047 182.498 123.988C181.39 122.879 180.283 121.771 179.174 120.661C179.119 120.607 179.062 120.549 179.008 120.496C178.432 119.926 178.012 119.517 177.413 119.072C177.313 118.999 177.089 118.848 176.913 118.769C176.814 118.727 176.764 118.702 176.618 118.675C176.448 118.641 176.212 118.69 176.083 118.857C175.886 119.097 175.942 119.46 175.955 119.576C175.975 119.744 176.027 119.965 176.079 120.143C176.494 121.492 177.109 122.723 177.709 123.957C178.937 126.424 180.267 128.833 181.61 131.228C187.354 141.493 193.848 151.704 199.387 161.659C199.404 161.819 199.399 161.914 199.384 161.967C199.38 161.984 199.384 161.936 199.466 161.894C199.548 161.861 199.555 161.884 199.531 161.873C199.393 161.83 199.14 161.633 198.943 161.45C198.524 161.064 198.134 160.624 197.739 160.159C196.966 159.24 196.253 158.297 195.542 157.326C187.654 146.212 180.802 134.354 174.523 122.258C173.311 119.896 172.286 117.437 171.459 114.913C168.252 104.796 167.435 92.627 171.91 83.5015C173.912 82.5696 175.857 84.3078 177.036 86.1172C183.696 98.4186 185.111 113 187.576 126.793C187.924 128.981 188.158 131.176 188.261 133.374C188.55 138.42 187.84 143.261 186.87 148.37C186.872 148.666 186.87 148.863 186.902 149.157C186.909 149.2 186.921 149.324 186.97 149.441C186.983 149.473 187 149.507 187.027 149.546C187.069 149.637 187.321 149.8 187.521 149.723C187.611 149.697 187.676 149.644 187.7 149.622C187.718 149.607 187.732 149.592 187.745 149.577C187.77 149.549 187.789 149.523 187.805 149.498C187.837 149.448 187.863 149.395 187.883 149.351C187.896 149.323 187.909 149.293 187.921 149.262C187.946 149.2 187.97 149.132 187.995 149.058C188.152 148.575 188.262 148.112 188.379 147.631C188.606 146.68 188.808 145.748 189.013 144.799C190.599 137.815 191.733 130.542 194.756 124.172C195.579 122.691 197.109 121.715 198.724 121.06C199.619 120.694 200.584 120.497 201.557 120.455C202.485 120.415 203.419 120.514 204.333 120.72C205.015 120.874 205.679 121.167 206.31 121.524C207.897 122.435 209.295 123.698 210.598 125.018C215.552 130.203 219.504 136.313 223.328 142.412C224.478 144.269 225.521 146.192 226.456 148.166C231.513 158.811 233.306 170.69 233.733 182.403C233.793 183.948 233.79 185.486 233.708 187.025C233.462 191.75 232.41 196.469 230.216 200.639C229.669 201.685 228.873 202.598 227.96 203.386C225.716 205.298 222.935 206.565 220.139 207.672C219.203 208.038 218.218 208.266 217.214 208.361C212.804 208.746 208.495 206.827 204.57 204.698C203.881 204.321 203.212 203.909 202.567 203.465C199.057 201.065 196.305 197.596 194.747 193.637L194.767 193.699C194.634 193.164 194.518 192.615 194.416 192.059C193.644 187.684 193.647 183.164 193.921 178.693C194.302 172.974 195.179 167.265 196.682 161.73L196.648 161.803C196.683 161.75 196.717 161.699 196.752 161.647C197.457 160.596 198.345 159.644 199.307 158.758C199.315 158.75 199.32 158.738 199.321 158.726C199.322 158.714 199.318 158.702 199.311 158.693C199.303 158.684 199.292 158.678 199.28 158.677C199.268 158.676 199.256 158.679 199.246 158.686C198.202 159.458 197.1 160.242 196.327 161.352C196.289 161.406 196.252 161.46 196.214 161.515L196.181 161.588C194.576 167.142 193.595 172.869 193.123 178.636C192.78 183.147 192.709 187.712 193.459 192.229C193.558 192.803 193.673 193.374 193.806 193.933L193.826 193.996C195.413 198.148 198.285 201.821 201.966 204.336C202.642 204.802 203.343 205.232 204.063 205.624C208.069 207.772 212.526 209.759 217.309 209.337C218.396 209.23 219.473 208.979 220.494 208.577C223.335 207.441 226.185 206.158 228.583 204.102C229.557 203.253 230.432 202.245 231.037 201.064C233.271 196.732 234.277 191.87 234.491 187.063C234.563 185.497 234.554 183.936 234.48 182.371C233.949 170.605 232.012 158.674 226.917 147.948C225.974 145.958 224.927 144.015 223.775 142.136C219.967 136.004 216.084 129.847 211.081 124.547C209.76 123.194 208.344 121.888 206.659 120.911C205.988 120.528 205.267 120.202 204.49 120.024C203.524 119.804 202.526 119.694 201.527 119.734C200.479 119.775 199.429 119.984 198.448 120.381C196.76 121.058 195.052 122.104 194.096 123.799C190.915 130.431 189.8 137.616 188.2 144.624C187.996 145.571 187.796 146.502 187.576 147.44C187.463 147.911 187.352 148.377 187.217 148.8C187.174 148.929 187.142 149.011 187.118 149.053C187.119 149.052 187.122 149.047 187.132 149.035C187.15 149.026 187.129 149.002 187.288 148.94C187.456 148.872 187.679 149.022 187.696 149.076C187.713 149.101 187.72 149.116 187.723 149.125C187.734 149.162 187.714 149.079 187.712 149.053C187.688 148.849 187.684 148.646 187.683 148.37C188.591 143.596 189.291 138.383 188.99 133.34C188.886 131.113 188.649 128.891 188.297 126.679C185.811 112.838 184.51 98.3802 177.67 85.6894C176.488 83.8425 174.162 81.6356 171.613 82.7835C166.131 93.0427 167.524 104.735 170.643 115.18C171.484 117.747 172.527 120.247 173.76 122.649C180.07 134.785 186.939 146.628 194.896 157.799C195.617 158.778 196.338 159.729 197.134 160.671C197.543 161.149 197.942 161.602 198.412 162.033C198.66 162.243 198.854 162.46 199.307 162.626C199.366 162.644 199.428 162.656 199.495 162.66C199.583 162.666 199.699 162.652 199.801 162.603C200.028 162.485 200.087 162.334 200.134 162.196C200.207 161.901 200.183 161.804 200.166 161.575C194.373 150.966 187.979 141.241 182.18 130.907C180.833 128.521 179.5 126.12 178.278 123.674C177.683 122.459 177.066 121.214 176.684 119.97C176.637 119.809 176.593 119.617 176.578 119.495C176.553 119.401 176.593 119.175 176.57 119.254C176.444 119.332 176.545 119.275 176.652 119.341C176.763 119.389 176.958 119.517 177.046 119.582C177.583 119.98 178.003 120.383 178.565 120.939C178.618 120.993 178.675 121.05 178.73 121.105C179.839 122.214 180.946 123.323 182.055 124.432Z" fill="white"/>
<path d="M242.094 115.567C242.191 115.615 242.303 115.623 242.405 115.589C242.508 115.555 242.593 115.481 242.641 115.385C242.69 115.288 242.698 115.176 242.663 115.073C242.629 114.971 242.556 114.886 242.459 114.838C241.928 114.575 241.314 114.249 240.576 114.251C239.834 114.25 239.181 114.63 238.695 115.052C238.691 115.056 238.686 115.06 238.681 115.065C237.646 115.957 236.784 117.039 236.113 118.217C234.515 121.049 233.923 124.325 234.049 127.521C234.049 127.528 234.049 127.534 234.05 127.541C234.37 134.932 237.661 141.829 241.904 147.699C241.932 147.737 241.959 147.775 241.986 147.812C242.375 148.46 243.422 148.615 243.989 148.208C244.59 147.846 244.956 147.297 245.251 146.744C245.278 146.694 245.304 146.642 245.329 146.589C250.154 137.001 247.469 125.866 243.945 116.373C243.928 116.324 243.911 116.275 243.894 116.226C243.738 115.771 243.601 115.308 243.473 114.848C243.409 114.617 243.347 114.388 243.292 114.163C243.265 114.051 243.239 113.94 243.222 113.841C243.214 113.798 243.21 113.736 243.212 113.757C243.21 113.766 243.217 113.781 243.186 113.856C243.165 113.899 243.13 113.965 243.026 114.023C242.921 114.076 242.833 114.067 242.779 114.055C242.622 114.001 242.676 114.002 242.67 114.007C242.678 114.015 242.687 114.024 242.696 114.032C248.986 119.745 253.421 127.11 260.914 131.964C260.954 131.966 260.994 131.966 261.033 131.964C261.867 131.948 262.406 131.233 262.659 130.65C262.932 130.038 263.066 129.411 263.183 128.786C263.189 128.757 263.194 128.728 263.199 128.699C264.856 121.434 261.228 114.259 256.855 108.736C256.851 108.731 256.847 108.726 256.843 108.72C256.563 108.341 256.315 107.937 256.072 107.53C255.95 107.325 255.83 107.121 255.703 106.915C255.64 106.812 255.575 106.709 255.504 106.605C255.467 106.551 255.43 106.499 255.383 106.44C255.357 106.408 255.336 106.38 255.284 106.332C255.249 106.309 255.263 106.283 255.083 106.215C255.046 106.205 254.951 106.182 254.833 106.219C254.71 106.258 254.632 106.345 254.593 106.412C254.521 106.557 254.54 106.573 254.532 106.625L254.555 106.778C254.571 106.828 254.59 106.879 254.61 106.931C256.672 111.056 259.686 114.297 262.678 117.579C263.146 118.076 263.621 118.569 264.102 119.058L264.123 119.077C264.135 119.089 264.148 119.1 264.161 119.111C265.475 120.242 267.414 121.763 269.319 120.828C269.347 120.814 269.371 120.791 269.384 120.762C269.397 120.732 269.399 120.7 269.388 120.67C269.378 120.64 269.355 120.616 269.327 120.602C269.298 120.587 269.265 120.585 269.234 120.592C267.45 121.031 266.067 119.59 264.727 118.471C264.715 118.46 264.703 118.449 264.69 118.438L264.711 118.458C264.235 117.974 263.764 117.486 263.301 116.993C260.351 113.781 257.286 110.421 255.384 106.629C255.368 106.586 255.352 106.545 255.338 106.507L255.361 106.66C255.354 106.693 255.373 106.7 255.31 106.828C255.275 106.889 255.202 106.971 255.086 107.008C254.974 107.043 254.889 107.021 254.857 107.012C254.707 106.955 254.745 106.95 254.73 106.945C254.723 106.938 254.739 106.953 254.753 106.968C254.781 107 254.816 107.042 254.851 107.086C254.919 107.172 254.991 107.265 255.063 107.358C255.207 107.545 255.354 107.733 255.503 107.922C255.799 108.298 256.099 108.674 256.387 109.059C256.391 109.065 256.394 109.07 256.398 109.075C260.784 114.593 264.313 121.49 262.705 128.609C262.7 128.637 262.695 128.665 262.69 128.694C262.472 129.826 261.983 131.288 261.012 131.314C260.988 131.314 260.964 131.314 260.939 131.313C254.413 126.836 249.443 119.176 243.24 113.467C243.231 113.459 243.222 113.45 243.213 113.442C243.159 113.402 243.173 113.365 242.956 113.292C242.885 113.277 242.784 113.268 242.664 113.328C242.546 113.393 242.504 113.471 242.476 113.528C242.432 113.63 242.436 113.677 242.432 113.715C242.429 113.859 242.448 113.915 242.462 113.989C242.493 114.131 242.529 114.248 242.568 114.369C242.646 114.609 242.733 114.837 242.821 115.065C242.998 115.519 243.183 115.966 243.349 116.42C243.367 116.469 243.384 116.517 243.402 116.566C246.942 126.043 249.588 136.972 244.864 146.363C244.84 146.412 244.817 146.458 244.793 146.504C244.336 147.511 243.062 148.311 242.537 147.418C242.51 147.38 242.483 147.343 242.457 147.305C238.288 141.469 235.119 134.693 234.833 127.505C234.833 127.499 234.833 127.493 234.832 127.487C234.72 124.425 235.311 121.273 236.818 118.62C237.45 117.514 238.254 116.51 239.214 115.682C239.218 115.678 239.223 115.674 239.227 115.67C240.07 114.875 241.033 114.954 242.094 115.567Z" fill="white"/>
<path d="M250.331 89.8659C250.375 89.8514 250.41 89.8203 250.431 89.7793C250.451 89.7383 250.455 89.691 250.44 89.6476C250.426 89.6042 250.394 89.5683 250.353 89.5479C250.312 89.5275 250.265 89.5242 250.222 89.5387C250.172 89.5554 250.122 89.5721 250.072 89.5889C249.172 89.8901 248.272 90.1912 247.372 90.4924C247.322 90.5091 247.272 90.5259 247.222 90.5426C247.178 90.5571 247.142 90.5883 247.122 90.6292C247.102 90.6702 247.098 90.7176 247.113 90.761C247.127 90.8044 247.159 90.8402 247.199 90.8606C247.24 90.8811 247.288 90.8844 247.331 90.8699C247.381 90.8531 247.431 90.8364 247.481 90.8197C248.381 90.5185 249.281 90.2173 250.181 89.9161C250.231 89.8994 250.281 89.8827 250.331 89.8659Z" fill="white"/>
<path d="M267.76 95.6567C267.746 95.5285 267.681 95.4112 267.58 95.3306C267.48 95.2499 267.351 95.2126 267.223 95.2268C267.095 95.241 266.977 95.3055 266.897 95.4062C266.816 95.5069 266.779 95.6354 266.793 95.7636C266.926 96.8654 267.21 97.8969 267.51 98.92C268.832 103.209 270.596 107.307 272.672 111.265C272.681 111.281 272.69 111.298 272.698 111.314C272.872 111.647 273.046 111.987 273.208 112.337C273.217 112.358 273.228 112.382 273.237 112.402C273.243 112.415 273.247 112.424 273.253 112.438C273.257 112.445 273.258 112.448 273.263 112.46C273.265 112.464 273.267 112.468 273.269 112.473C273.271 112.476 273.272 112.48 273.275 112.485C273.276 112.487 273.277 112.49 273.279 112.494C273.281 112.497 273.277 112.491 273.287 112.51C273.314 112.533 273.249 112.524 273.451 112.679C273.507 112.715 273.685 112.787 273.872 112.693C274.051 112.596 274.083 112.467 274.1 112.412C274.126 112.297 274.112 112.278 274.113 112.253C274.108 112.212 274.104 112.204 274.102 112.194C274.094 112.162 274.095 112.169 274.092 112.159C274.071 112.1 274.055 112.06 274.037 112.014C274.003 111.924 273.967 111.828 273.935 111.738C273.867 111.551 273.804 111.365 273.746 111.178C273.72 111.095 273.697 111.023 273.671 110.938C271.566 103.421 268.571 95.5314 269.414 88.0012C269.428 87.9646 269.443 87.9304 269.457 87.8986C269.642 87.4366 270.635 87.4493 271.377 87.6754C272.159 87.8963 272.914 88.2801 273.624 88.7236C273.64 88.7337 273.656 88.7438 273.672 88.754C276.299 90.4969 278.691 92.7817 281.085 94.9893C281.09 94.9933 281.094 94.9973 281.098 95.0013C281.547 95.4136 282.004 95.8141 282.482 96.1966C283.305 96.8654 284.23 97.4452 285.182 97.8995C285.232 97.9247 285.29 97.9288 285.343 97.911C285.397 97.8933 285.441 97.8551 285.466 97.8048C285.491 97.7546 285.495 97.6964 285.477 97.6432C285.46 97.5899 285.421 97.5458 285.371 97.5207C284.425 97.0675 283.557 96.5227 282.747 95.8657C282.279 95.4916 281.829 95.097 281.385 94.6893C281.38 94.6854 281.376 94.6815 281.372 94.6775C278.983 92.4809 276.959 89.878 274.151 87.9987C274.133 87.9877 274.116 87.9767 274.099 87.9659C273.33 87.4867 272.496 87.0894 271.59 86.8633C271.134 86.7532 270.66 86.6816 270.155 86.7252C269.673 86.766 269.023 86.9646 268.746 87.5765C268.725 87.6231 268.705 87.6714 268.686 87.7214C267.739 96.019 270.812 103.537 272.892 111.177C272.918 111.263 272.94 111.335 272.966 111.42C273.025 111.609 273.079 111.799 273.134 111.994C273.16 112.088 273.188 112.188 273.214 112.284C273.227 112.328 273.243 112.385 273.252 112.42C273.251 112.418 273.253 112.429 273.246 112.402C273.244 112.392 273.241 112.386 273.236 112.345C273.237 112.32 273.223 112.301 273.249 112.186C273.266 112.132 273.298 112.003 273.477 111.906C273.664 111.811 273.842 111.884 273.898 111.92C274.1 112.074 274.035 112.065 274.061 112.088C274.07 112.106 274.067 112.1 274.068 112.102C274.07 112.106 274.071 112.108 274.072 112.111C274.074 112.115 274.076 112.117 274.076 112.119C274.078 112.122 274.078 112.123 274.078 112.123C274.078 112.121 274.077 112.117 274.075 112.111C274.071 112.1 274.067 112.09 274.063 112.076C274.056 112.055 274.046 112.029 274.038 112.005C273.903 111.615 273.753 111.233 273.56 110.863C273.55 110.845 273.541 110.826 273.531 110.808C271.488 106.917 269.733 102.834 268.442 98.6422C268.15 97.6504 267.876 96.6332 267.76 95.6567Z" fill="white"/>
<path d="M300.156 78.0787C300.252 78.1107 300.356 78.1034 300.446 78.0583C300.537 78.0133 300.605 77.9342 300.637 77.8385C300.669 77.7429 300.662 77.6384 300.617 77.5481C300.572 77.4578 300.493 77.3892 300.397 77.3572C296.067 75.9293 291.594 74.5005 286.898 74.6318C286.742 74.6382 286.585 74.6467 286.43 74.6574C285.483 74.6635 284.672 75.5195 284.451 76.3181C284.182 77.128 284.146 77.9432 284.155 78.7329C284.198 80.6012 284.549 82.4083 284.947 84.1861C284.974 84.3054 285.001 84.4237 285.028 84.5394C286.033 88.7424 288.359 92.4838 291.228 95.6225C291.414 95.8245 291.604 96.0232 291.797 96.2181C292.667 97.1081 293.829 97.7676 295.078 97.9619C295.413 98.017 295.753 98.0399 296.089 98.0358C296.888 98.0309 297.704 97.784 298.354 97.3014C298.669 97.0713 298.943 96.7908 299.171 96.4808C305.371 83.4391 297.74 69.5584 292.974 57.3629C292.675 56.6896 292.374 56.0248 292.067 55.3546C288.743 48.105 284.586 41.246 279.574 35.0332C278.963 34.2554 278.23 33.4307 277.768 32.7344C277.954 40.287 282.614 48.2107 285.995 55.5273C286.329 56.1845 286.666 56.8326 287.013 57.4851C291.155 65.1027 296.05 72.6005 303.284 77.7318C304.158 78.2772 305.105 78.7943 306.23 78.9117C306.625 78.9334 307.025 78.9454 307.428 78.932C308.533 78.9104 309.642 78.5391 310.549 77.9202C313.063 76.2436 314.766 73.6572 315.986 70.9805C316.484 69.8886 316.907 68.7648 317.285 67.6313C319.556 60.5632 316.835 53.1871 313.695 46.8805C313.169 45.84 312.784 44.7204 312.21 43.701C312.071 43.4529 311.93 43.2059 311.789 42.9602C311.496 42.4529 311.171 41.9653 310.796 41.5053C310.607 41.275 310.409 41.0525 310.171 40.8414C310.048 40.7357 309.929 40.6329 309.734 40.5372C309.632 40.5023 309.514 40.4035 309.218 40.5006C309.069 40.5601 308.971 40.7016 308.939 40.7971C308.904 40.8915 308.899 40.9619 308.897 41.0278C309.247 50.0807 317.537 55.6065 324.704 59.3266C326.124 60.0062 327.608 60.6174 329.154 61.0245C331.682 61.5401 333.026 59.1708 334.027 57.6065C334.844 56.2284 335.504 54.7842 336.196 53.3752C337.142 51.4533 337.405 49.2986 337.384 47.2172C337.365 45.497 337.168 43.7939 336.911 42.1073C336.604 40.1019 335.704 38.2389 334.547 36.6154C333.486 35.1261 332.208 33.8109 330.854 32.619C330.539 32.3403 330.285 32.1201 329.975 31.8806C329.913 31.8329 329.819 31.7627 329.733 31.7037C329.639 31.6399 329.601 31.6126 329.469 31.5389C329.411 31.5078 329.356 31.4816 329.297 31.4604C329.269 31.4533 329.106 31.3781 328.914 31.4467C328.822 31.4734 328.696 31.5879 328.661 31.6916C328.62 31.7902 328.624 31.8971 328.627 31.9311C328.634 32.0087 328.65 32.0751 328.671 32.1434C328.991 32.9512 329.426 33.5188 329.837 34.148C330.68 35.383 331.566 36.5733 332.458 37.7535C334.249 40.1131 336.087 42.438 337.964 44.7296C338.351 45.1989 338.814 45.6214 339.251 46.0239C339.497 46.2516 339.774 46.4388 340.08 46.5775C340.692 46.9194 341.657 46.6478 341.931 45.9685C345.018 39.5401 341.024 32.9316 340.354 26.5508C340.286 25.9163 340.254 25.2804 340.275 24.6484C340.285 24.4133 340.354 24.2879 340.531 24.267C340.713 24.2424 340.961 24.3123 341.178 24.3948C341.633 24.5716 342.061 24.8196 342.489 25.0815C343.334 25.6055 344.157 26.1973 344.974 26.7896C346.609 27.9747 348.219 29.2088 349.972 30.2761C350.328 30.4903 350.703 30.7046 351.076 30.8949C351.449 31.0744 351.786 31.2322 352.298 31.2044C352.822 31.1876 353.258 30.7032 353.384 30.3196C353.674 29.5099 353.627 28.7938 353.602 28.0665C353.518 26.6215 353.281 25.2328 353.055 23.8393C352.668 21.1159 351.837 18.1364 352.482 15.7316L352.393 15.8634C352.556 15.7004 352.718 15.5395 352.877 15.3808C353.253 15.0078 353.626 14.6392 354.007 14.267C357.448 10.7551 361.327 7.85572 364.596 3.9526C364.622 3.9145 364.647 3.87639 364.672 3.83822C365.405 2.74993 366.001 1.53164 366.477 0.299553C366.497 0.247661 366.496 0.188559 366.474 0.135844C366.453 0.0830943 366.413 0.0410514 366.362 0.0183685C366.311 -0.00431448 366.253 -0.00595082 366.199 0.0132237C366.146 0.0324328 366.101 0.0708808 366.076 0.120705C365.499 1.28726 364.744 2.32087 364.013 3.39942C363.987 3.43736 363.962 3.47531 363.937 3.51332C360.898 7.11617 356.85 10.1824 353.421 13.6675C353.038 14.0409 352.663 14.4109 352.286 14.7855C352.125 14.9449 351.963 15.1065 351.8 15.2703L351.711 15.4022C350.918 18.4762 351.875 21.1932 352.247 23.9747C352.478 25.3602 352.718 26.7399 352.804 28.1104C352.839 28.7862 352.85 29.4898 352.652 30.0294C352.544 30.293 352.427 30.4057 352.228 30.4254C352.006 30.4443 351.73 30.354 351.427 30.2024C351.075 30.0259 350.713 29.8222 350.367 29.6166C348.656 28.5901 346.997 27.4263 345.304 26.3124C344.457 25.7551 343.602 25.1982 342.715 24.6978C342.264 24.4472 341.817 24.2084 341.309 24.0295C341.062 23.9491 340.791 23.8611 340.473 23.9062C340.321 23.9276 340.133 24.0245 340.041 24.1855C339.952 24.3339 339.931 24.4847 339.928 24.6408C339.921 25.2912 339.961 25.9399 340.031 26.5857C340.738 33.059 344.612 39.6503 341.602 45.7979C341.36 46.3262 340.753 46.4928 340.235 46.2343C339.985 46.121 339.773 45.9248 339.612 45.6998C339.284 45.2355 338.957 44.6944 338.573 44.2291C336.704 41.9475 334.861 39.6307 333.068 37.2898C332.175 36.1196 331.285 34.9381 330.45 33.7291C330.052 33.1402 329.585 32.4759 329.366 31.9225C329.355 31.8898 329.353 31.8695 329.353 31.8755C329.352 31.8752 329.36 31.9035 329.335 31.9657C329.317 32.0278 329.224 32.1134 329.166 32.1287C329.03 32.1651 329.04 32.133 329.052 32.1442C329.065 32.1485 329.091 32.1597 329.126 32.1783C329.21 32.2246 329.246 32.2484 329.323 32.3004C329.395 32.3493 329.48 32.4118 329.537 32.4549C329.822 32.6726 330.072 32.8848 330.379 33.1544C331.721 34.3208 332.962 35.5841 333.992 37.0129C335.115 38.5688 336 40.3209 336.322 42.2027C336.606 43.8679 336.825 45.5442 336.843 47.2226C336.864 49.2544 336.58 51.3213 335.667 53.1107C334.952 54.5198 334.273 55.9404 333.463 57.266C332.491 58.8328 331.06 60.7551 329.359 60.267C327.901 59.8488 326.458 59.2275 325.071 58.5634C318.027 54.9501 309.957 49.4058 309.666 41.0457C309.66 41.0091 309.702 41.1081 309.517 41.2091C309.355 41.2541 309.385 41.2105 309.409 41.2326C309.471 41.261 309.574 41.3366 309.666 41.4172C309.854 41.5819 310.035 41.7815 310.207 41.9892C310.55 42.4065 310.858 42.8638 311.134 43.3386C311.275 43.5817 311.416 43.8261 311.555 44.0715C312.126 45.0782 312.846 46.0082 313.37 47.0451C316.499 53.3177 319.149 60.6322 316.918 67.5089C316.542 68.6322 316.121 69.7424 315.629 70.8175C314.424 73.4552 312.723 75.9573 310.294 77.5331C309.434 78.1017 308.44 78.4199 307.414 78.4303C307.04 78.4383 306.662 78.4053 306.283 78.3542C305.402 78.1967 304.525 77.6028 303.706 77.0805C296.725 72.107 291.845 64.6314 287.76 57.0886C287.417 56.4401 287.082 55.796 286.75 55.1429C282.949 48.048 280.152 39.4295 277.125 33.052C277.759 34.0076 278.396 34.6645 279.031 35.4715C284.042 41.6104 288.254 48.3737 291.576 55.58C291.884 56.2477 292.185 56.9103 292.484 57.5815C297.279 69.6799 304.656 83.7906 298.692 96.1281C298.496 96.3935 298.265 96.6287 298.002 96.8204C297.458 97.2219 296.775 97.4012 296.094 97.3794C295.792 97.3713 295.492 97.3394 295.199 97.2824C294.108 97.077 293.14 96.4662 292.376 95.6558C292.191 95.4626 292.009 95.2673 291.828 95.0703C289.043 92.0129 286.799 88.357 285.845 84.3494C285.819 84.235 285.792 84.118 285.765 84.0003C285.372 82.2483 285.012 80.4752 284.953 78.7153C284.905 77.3039 285.134 75.4531 286.483 75.4167C286.631 75.4063 286.78 75.3981 286.929 75.392C291.421 75.2615 295.849 76.6538 300.156 78.0787Z" fill="white"/>
<path d="M303.466 122.336C303.499 122.286 303.511 122.225 303.499 122.165C303.488 122.106 303.453 122.054 303.403 122.021C303.352 121.987 303.291 121.975 303.232 121.987C303.173 121.999 303.121 122.034 303.087 122.084C301.828 123.97 300.581 125.868 299.276 127.714C299.08 127.988 298.883 128.26 298.68 128.521C298.605 128.618 298.531 128.71 298.455 128.796C298.301 128.973 298.169 129.119 298.059 129.235C297.987 129.311 297.902 129.398 297.845 129.451C297.81 129.484 297.807 129.488 297.753 129.533C297.722 129.568 297.654 129.57 297.778 129.55C297.859 129.528 297.997 129.677 297.983 129.724C297.987 129.775 297.981 129.765 297.984 129.762C297.985 129.757 297.989 129.746 297.994 129.731C298.006 129.701 298.026 129.656 298.053 129.602C298.093 129.523 298.13 129.455 298.182 129.363C298.305 129.151 298.368 129.048 298.487 128.856C298.894 128.207 299.374 127.498 299.799 126.879C300.7 125.569 301.623 124.281 302.561 122.994C304.442 120.418 306.355 117.897 308.321 115.397C312.288 110.461 316.221 105.368 321.065 101.343C321.837 100.704 322.969 100.777 323.702 101.451C323.978 101.691 324.207 101.99 324.373 102.319C324.819 103.201 325.152 104.151 325.398 105.112C327.716 120.395 320.589 135.37 320.495 150.9C320.481 151.481 320.503 152.064 320.642 152.651C320.794 153.426 321.4 154.306 322.289 154.442C323.139 154.598 323.924 154.359 324.655 154.102L324.69 154.086C325.072 153.866 325.442 153.654 325.82 153.442C332.137 150.118 338.243 145.599 345.433 144.958C345.651 144.949 345.871 144.946 346.089 144.948L346.019 144.931C346.098 144.97 346.176 145.011 346.253 145.054C347.865 146.055 348.999 147.747 350.22 149.252C350.231 149.267 350.248 149.277 350.266 149.279C350.285 149.282 350.303 149.277 350.318 149.266C350.333 149.255 350.343 149.238 350.345 149.22C350.348 149.201 350.344 149.183 350.333 149.168C349.151 147.621 348.147 145.872 346.415 144.772C346.332 144.725 346.249 144.68 346.164 144.638L346.094 144.621C345.87 144.617 345.644 144.62 345.421 144.628C338.037 145.262 331.959 149.784 325.613 153.072C325.234 153.283 324.861 153.488 324.473 153.699L324.508 153.683C323.808 153.916 323.056 154.089 322.398 153.942C321.732 153.807 321.334 153.213 321.179 152.522C321.058 152.011 321.034 151.466 321.048 150.915C321.122 135.474 328.27 120.646 325.915 104.979C325.659 103.986 325.296 103.004 324.82 102.09C324.621 101.707 324.353 101.361 324.025 101.078C323.18 100.269 321.671 100.176 320.768 100.953C315.825 105.072 311.931 110.151 307.953 115.108C305.986 117.615 304.074 120.141 302.19 122.724C301.251 124.014 300.327 125.305 299.423 126.621C298.996 127.243 298.515 127.955 298.101 128.615C297.98 128.811 297.915 128.915 297.787 129.138C297.732 129.235 297.692 129.307 297.646 129.398C297.615 129.461 297.589 129.517 297.57 129.568C297.56 129.594 297.551 129.618 297.544 129.644C297.543 129.653 297.522 129.716 297.532 129.788C297.522 129.864 297.675 130.026 297.781 130.005C298.049 129.955 298.09 129.825 298.157 129.782C298.223 129.72 298.315 129.627 298.39 129.548C298.505 129.426 298.64 129.276 298.798 129.096C298.883 128.998 298.96 128.902 299.039 128.8C299.249 128.53 299.448 128.255 299.646 127.978C300.961 126.119 302.206 124.223 303.466 122.336Z" fill="white"/>
</svg>
