<svg width="1634" height="855" viewBox="0 0 1634 855" fill="none" xmlns="http://www.w3.org/2000/svg">
<path d="M161.648 853.345C161.648 852.939 161.648 852.532 176.462 816.017C191.276 779.503 220.903 706.892 250.208 581.452C279.513 456.012 307.596 279.944 322.289 173.212C336.982 66.4801 337.433 34.4205 337.676 23.4962C337.918 12.5719 337.939 23.7544 346.608 75.5162C355.276 127.278 372.59 219.28 385.014 278.133C397.438 336.986 404.446 359.903 412.554 380.601C420.662 401.3 429.658 419.087 440.355 435.809C451.051 452.531 463.175 467.65 478.429 480.647C493.684 493.645 511.702 504.064 534.913 511.646C558.125 519.227 585.984 523.656 618.643 522.098C651.301 520.539 687.913 512.858 728.747 497.358C769.58 481.857 813.526 458.771 859.193 429.336C904.86 399.902 950.917 364.819 994.621 326.405C1038.33 287.992 1078.28 247.31 1119.45 205.395" stroke="white" stroke-width="2" stroke-linecap="round"/>
<path d="M1 437.66C1.24295 437.66 1.48589 437.66 2.75103 437.66C4.01616 437.66 6.29611 437.66 275.353 388.597C544.41 339.535 1080.18 241.41 1632.18 140.312" stroke="white" stroke-width="2" stroke-linecap="round"/>
<path d="M469.656 1C469.656 1.16819 469.656 1.33639 469.694 57.9046C469.731 114.473 469.806 227.436 469.759 283.602C469.712 339.767 469.542 335.712 469.288 332.694C468.877 327.801 467.44 323.997 465.22 320.675C463.149 317.576 458.385 317.471 454.249 317.885C452.252 318.084 450.634 319.287 449.61 320.828C447.456 324.069 448.482 328.534 450.402 332.567C452.823 337.652 457.709 340.256 461.119 340.766C464.353 339.01 467.769 335.301 471.353 330.511C473.129 327.936 474.818 325.067 476.565 321.489" stroke="white" stroke-width="2" stroke-linecap="round"/>
<path d="M529.671 281.741C529.671 281.474 529.671 272.715 529.095 260.819C528.519 257.545 527.368 259.881 526.446 284.535C525.525 309.188 524.868 356.089 522.854 402.527" stroke="white" stroke-width="2" stroke-linecap="round"/>
<path d="M526.585 218.987C527.496 221.173 528.8 228.238 527.769 231.913C527.371 233.329 524.675 232.354 523.384 231.116C522.094 229.878 521.639 228.028 521.739 226.138C521.84 224.249 522.51 222.375 527.207 220.381" stroke="white" stroke-width="2" stroke-linecap="round"/>
<path d="M593.607 246.948C593.766 243.46 595.044 232.574 601.09 211.737C605.921 195.089 615.378 166.419 621.737 140.065C628.096 113.712 631.338 90.6224 633.17 72.9334C635.001 55.2444 635.324 43.6554 634.497 38.4024C633.67 33.1495 631.684 34.5838 630.815 145.003C629.945 255.421 630.251 474.781 627.699 607.423C625.146 740.064 619.727 779.34 616.044 802.921C612.361 826.503 610.578 833.2 608.742 840.1" stroke="white" stroke-width="2" stroke-linecap="round"/>
<path d="M692.372 236.825C692.692 240.434 695.182 250.678 702.767 261.3C706.314 266.267 710.85 268.162 714.445 268.26C725.526 268.564 733.951 250.972 737.449 245.726C738.974 243.438 739.62 241.671 738.684 301.428C737.748 361.184 735.115 482.457 733.167 548.581C731.218 614.706 730.034 622.009 728.814 629.532" stroke="white" stroke-width="2" stroke-linecap="round"/>
<path d="M794.477 330.521C794.921 327.536 809.558 295.458 831.986 249.965C846.168 221.199 847.89 205.009 848.649 199.879C848.823 198.703 848.282 217.696 850.835 250.504C853.992 291.049 863.718 321.509 868.899 335.162C871.097 340.562 872.419 342.858 873.673 344.737C874.926 346.616 876.071 348.009 880.691 352.147" stroke="white" stroke-width="2" stroke-linecap="round"/>
</svg>
