<svg width="615" height="319" viewBox="0 0 615 319" fill="none" xmlns="http://www.w3.org/2000/svg">
<path d="M1.00023 317.716C4.76606 315.863 15.8335 308.357 26.0409 299.496C31.7411 294.548 37.8933 288.006 48.9957 274.056C60.0982 260.106 75.8099 238.773 89.485 216.94C103.16 195.106 114.323 173.419 121.46 157.925C128.598 142.432 131.373 133.789 133.555 125.703C135.737 117.617 137.241 110.349 138.331 102.118C142.092 73.7088 139.509 67.9614 138.23 65.8644C137.65 64.9139 136.541 64.6941 135.959 65.5098C134.272 67.8757 135.129 73.0712 138.649 90.3687C141.634 105.037 148.641 131.319 154.067 149.818C159.493 168.316 163.532 178.145 167.903 186.947C172.273 195.748 176.853 203.223 181.853 209.961C186.852 216.699 192.132 222.474 197.891 227.083C203.651 231.692 209.729 234.961 217.175 237.338C224.621 239.715 233.25 241.101 243.412 241.627C253.573 242.154 265.006 241.778 277.469 240.244C289.932 238.711 303.08 236.03 324.085 229.301C345.091 222.573 373.556 211.878 393.412 203.362C413.269 194.846 423.656 188.833 434.357 182.638" stroke="white" stroke-width="2" stroke-linecap="round"/>
<path d="M25.9181 242.932C26.4275 242.884 26.9369 242.836 90.2301 213.294C153.523 183.752 279.585 124.717 378.14 83.9277C476.695 43.1384 543.923 22.3838 613.189 1.00026" stroke="white" stroke-width="2" stroke-linecap="round"/>
<path d="M164.314 41.1858C164.314 41.7076 164.46 43.3889 170.909 65.5525C176.967 86.3759 189.664 126.35 196.613 147.98C203.561 169.61 204.628 171.609 204.769 171.296C208.12 163.888 193.802 151.951 186.735 144.499C185.705 143.413 184.598 143.035 183.646 142.844C182.693 142.653 181.778 142.824 181.138 143.39C179.78 144.59 179.769 148.435 179.895 152.806C179.979 155.753 181.972 158.171 184.183 160.593C185.953 162.532 187.959 163.307 189.694 163.676C193.326 164.449 199.743 156.382 205.504 147.832C211.756 138.554 210.181 131.813 210.489 130.442C211.121 127.629 212.13 136.704 213.326 138.357C217.569 140.193 223.632 140.519 228.129 138.411C228.949 137.641 229.494 136.77 230.057 135.872" stroke="white" stroke-width="2" stroke-linecap="round"/>
<path d="M204.386 116.579C204.554 116.579 205.621 116.579 207.482 117.012C209.514 117.484 210.119 120.265 210.474 122.319C210.644 123.304 210.614 124.198 210.173 125.046C209.733 125.894 208.837 126.677 207.934 127.072C207.032 127.467 206.15 127.45 205.431 127.014C203.896 126.083 203.562 123.765 203.71 121.727C203.934 120.769 204.458 119.963 205.312 119.539C206.165 119.115 207.333 119.097 208.535 119.078" stroke="white" stroke-width="2" stroke-linecap="round"/>
<path d="M206.067 70.5179C205.782 71.6601 206.135 77.0344 210.075 89.7624C213.572 100.168 220.112 118.587 224.203 129.394C228.294 140.2 229.74 142.837 232.174 146.846" stroke="white" stroke-width="2" stroke-linecap="round"/>
<path d="M201.371 102.098C201.439 102.098 201.507 102.098 202.336 101.964C203.165 101.829 204.754 101.561 208.457 100.517C212.16 99.474 217.93 97.6645 226.168 95.4048" stroke="white" stroke-width="2" stroke-linecap="round"/>
<path d="M232.181 119.178C232.181 119.312 232.882 120.048 234.565 120.974C238.547 123.167 242.216 116.646 244.376 113.843C246.325 111.313 247.323 128.62 250.074 145.187C253.463 165.597 250.215 173.263 247.665 178.285C247.097 179.405 246.208 180.157 245.331 180.808C244.454 181.459 243.46 181.892 242.712 181.396C236.61 177.344 241.418 162.698 244.266 155.101C246.956 147.926 262.437 138.516 271.143 131.656C274.935 128.668 275.848 124.331 276.698 118.225C277.175 114.795 275.977 111.716 274.513 109.525C273.233 107.611 270.416 107.555 267.778 107.676C264.865 107.81 262.62 109.163 261.131 110.324C259.673 111.461 258.506 113.45 257.634 115.874C257.22 117.025 257.341 118.157 257.634 119.131C257.927 120.104 258.512 120.919 259.35 121.543C260.188 122.166 261.262 122.572 262.316 122.429C263.369 122.287 264.368 121.584 265.139 120.58C268.47 116.236 267.664 111.595 267.945 110.685C269.038 107.141 276.003 114.107 281.773 113.723C283.365 113.448 285.033 113.002 287.137 112.192C289.241 111.382 291.731 110.221 294.297 109.026" stroke="white" stroke-width="2" stroke-linecap="round"/>
</svg>
