<svg width="619" height="392" viewBox="0 0 619 392" fill="none" xmlns="http://www.w3.org/2000/svg">
<path d="M1 390.613C2.68984 390.613 11.0442 390.08 26.742 384.106C37.8531 379.878 48.3471 368.75 60.2797 357.292C66.4068 351.408 71.961 344.659 77.908 336.675C83.8549 328.691 89.8426 319.491 95.7089 309.074C101.575 298.658 107.139 287.304 113.713 268.589C120.287 249.875 127.703 224.144 133.684 184.401C139.665 144.659 143.986 91.6848 146.039 61.4316C148.093 31.1784 147.749 25.2513 147.266 20.4236C145.863 6.41402 143.369 1.74721 142.404 1.03392C141.947 0.696069 141.437 2.95162 141.213 4.78994C140.989 6.62826 141.037 8.63146 149.514 51.1338C157.991 93.6362 174.895 176.577 186.433 227.339C197.97 278.101 203.628 294.17 208.308 305.232C215.535 322.31 224.593 331.8 233.877 339.672C243.031 347.434 254.477 350.805 266.113 353.113C272.365 354.354 279.541 354.464 287.917 354.055C296.293 353.646 305.707 352.389 315.857 349.596C326.008 346.804 336.609 342.514 370.984 318.974C405.359 295.434 463.186 252.773 498.053 228.167C532.92 203.561 543.074 198.302 554.098 192.461" stroke="white" stroke-width="2" stroke-linecap="round"/>
<path d="M7.64062 313.356C13.8397 312.416 20.0388 311.476 120.742 266.838C221.444 222.199 416.463 133.891 617.391 42.9063" stroke="white" stroke-width="2" stroke-linecap="round"/>
<path d="M195.633 50.5391C195.633 51.0083 195.88 59.7579 199.274 91.2832C201.76 114.381 208.456 151.57 211.975 171.899C215.897 194.561 217.943 198.228 219.401 199.799C219.868 200.302 220.591 198.807 220.585 197.666C220.561 192.786 214.543 189.652 210.349 187.747C209.33 187.284 208.163 187.461 207.364 188.09C205.55 189.521 205.613 192.521 205.914 194.864C206.235 197.373 208.388 199.162 210.403 200.296C212.369 201.402 214.931 200.669 217.368 199.774C223.117 197.662 224.592 192.392 226.601 187.859C228.272 184.089 228.622 179.724 229.571 177.762C232.243 172.242 239.932 185.532 245.454 186.649C247.67 185.968 249.306 184.576 250.939 181.849C251.976 179.959 253.437 177.043 254.941 174.039" stroke="white" stroke-width="2" stroke-linecap="round"/>
<path d="M230.098 164.527C230.015 164.445 231.425 164.361 234.011 164.666C235.187 164.805 235.912 165.747 236.328 166.998C236.744 168.248 236.786 169.992 236.32 171.134C235.855 172.276 234.882 172.764 234.025 172.578C233.169 172.392 232.458 171.518 232.07 170.42C231.681 169.322 231.636 168.026 232.183 167.222C232.731 166.418 233.871 166.145 235.551 165.863" stroke="white" stroke-width="2" stroke-linecap="round"/>
</svg>
